{
    "asset" : {
        "generator" : "Khronos glTF Blender I/O v1.0.5",
        "version" : "2.0"
    },
    "scene" : 0,
    "scenes" : [
        {
            "name" : "Scene",
            "nodes" : [
                0,
                1,
                2,
                3,
                4
            ]
        }
    ],
    "nodes" : [
        {
            "name" : "v-curve",
            "rotation" : [
                -0.7071067690849304,
                0,
                0,
                0.7071067690849304
            ],
            "scale" : [
                1.519759178161621,
                1.519759178161621,
                1.519759178161621
            ],
            "translation" : [
                0.43590015172958374,
                0,
                0.000400664284825325
            ]
        },
        {
            "name" : "h-curve",
            "scale" : [
                1.519759178161621,
                1.519759178161621,
                1.519759178161621
            ],
            "translation" : [
                0.6872100830078125,
                0.004063061438500881,
                0.015052614733576775
            ]
        },
        {
            "mesh" : 0,
            "name" : "petal04",
            "rotation" : [
                -0.287592351436615,
                0.9528445601463318,
                0.07051164656877518,
                0.06637728214263916
            ],
            "scale" : [
                1.2259832620620728,
                0.0808221623301506,
                0.635187029838562
            ],
            "translation" : [
                -0.5772590637207031,
                0.2284138798713684,
                -0.5001006126403809
            ]
        },
        {
            "mesh" : 1,
            "name" : "center",
            "scale" : [
                0.5207064151763916,
                0.39862075448036194,
                0.5207064151763916
            ],
            "translation" : [
                0.050342902541160583,
                0.14583724737167358,
                -0.01846635341644287
            ]
        },
        {
            "mesh" : 2,
            "name" : "pollen",
            "scale" : [
                -0.023037966340780258,
                -0.12804515659809113,
                -0.023037966340780258
            ],
            "translation" : [
                0.031844522804021835,
                0.1647491157054901,
                -0.09234516322612762
            ]
        }
    ],
    "materials" : [
        {
            "doubleSided" : true,
            "name" : "Material.003",
            "pbrMetallicRoughness" : {
                "baseColorFactor" : [
                    0,
                    0.6988099217414856,
                    0.8000000715255737,
                    1
                ],
                "metallicFactor" : 0.1613636314868927,
                "roughnessFactor" : 0
            }
        },
        {
            "doubleSided" : true,
            "name" : "Material.001",
            "pbrMetallicRoughness" : {
                "baseColorFactor" : [
                    0.9513229727745056,
                    0.8093135356903076,
                    0.06401673704385757,
                    1
                ],
                "metallicFactor" : 0,
                "roughnessFactor" : 0.5340908765792847
            }
        },
        {
            "doubleSided" : true,
            "name" : "Material.002",
            "pbrMetallicRoughness" : {
                "baseColorFactor" : [
                    1,
                    0.2909979820251465,
                    0,
                    1
                ],
                "metallicFactor" : 0,
                "roughnessFactor" : 1
            }
        }
    ],
    "meshes" : [
        {
            "name" : "Cube.001",
            "primitives" : [
                {
                    "attributes" : {
                        "POSITION" : 0,
                        "NORMAL" : 1,
                        "TEXCOORD_0" : 2
                    },
                    "indices" : 3,
                    "material" : 0
                }
            ]
        },
        {
            "name" : "Cube.008",
            "primitives" : [
                {
                    "attributes" : {
                        "POSITION" : 4,
                        "NORMAL" : 5,
                        "TEXCOORD_0" : 6
                    },
                    "indices" : 7,
                    "material" : 1
                }
            ]
        },
        {
            "name" : "Cylinder.014",
            "primitives" : [
                {
                    "attributes" : {
                        "POSITION" : 8,
                        "NORMAL" : 9,
                        "TEXCOORD_0" : 10
                    },
                    "indices" : 11,
                    "material" : 2
                }
            ]
        }
    ],
    "accessors" : [
        {
            "bufferView" : 0,
            "componentType" : 5126,
            "count" : 12642,
            "max" : [
                -0.08756152540445328,
                0.8088009357452393,
                0.23592838644981384
            ],
            "min" : [
                -0.8974408507347107,
                -8.099332809448242,
                -1.570324420928955
            ],
            "type" : "VEC3"
        },
        {
            "bufferView" : 1,
            "componentType" : 5126,
            "count" : 12642,
            "type" : "VEC3"
        },
        {
            "bufferView" : 2,
            "componentType" : 5126,
            "count" : 12642,
            "type" : "VEC2"
        },
        {
            "bufferView" : 3,
            "componentType" : 5123,
            "count" : 74772,
            "type" : "SCALAR"
        },
        {
            "bufferView" : 4,
            "componentType" : 5126,
            "count" : 282,
            "max" : [
                0.18813036382198334,
                0.11768285930156708,
                0.18813036382198334
            ],
            "min" : [
                -0.18813036382198334,
                -0.35422927141189575,
                -0.18813036382198334
            ],
            "type" : "VEC3"
        },
        {
            "bufferView" : 5,
            "componentType" : 5126,
            "count" : 282,
            "type" : "VEC3"
        },
        {
            "bufferView" : 6,
            "componentType" : 5126,
            "count" : 282,
            "type" : "VEC2"
        },
        {
            "bufferView" : 7,
            "componentType" : 5123,
            "count" : 1242,
            "type" : "SCALAR"
        },
        {
            "bufferView" : 8,
            "componentType" : 5126,
            "count" : 13202,
            "max" : [
                2.4943530559539795,
                0.30480000376701355,
                0.7271434664726257
            ],
            "min" : [
                -4.163426399230957,
                -0.40804150700569153,
                -6.610625743865967
            ],
            "type" : "VEC3"
        },
        {
            "bufferView" : 9,
            "componentType" : 5126,
            "count" : 13202,
            "type" : "VEC3"
        },
        {
            "bufferView" : 10,
            "componentType" : 5126,
            "count" : 13202,
            "type" : "VEC2"
        },
        {
            "bufferView" : 11,
            "componentType" : 5123,
            "count" : 50904,
            "type" : "SCALAR"
        }
    ],
    "bufferViews" : [
        {
            "buffer" : 0,
            "byteLength" : 151704,
            "byteOffset" : 0
        },
        {
            "buffer" : 0,
            "byteLength" : 151704,
            "byteOffset" : 151704
        },
        {
            "buffer" : 0,
            "byteLength" : 101136,
            "byteOffset" : 303408
        },
        {
            "buffer" : 0,
            "byteLength" : 149544,
            "byteOffset" : 404544
        },
        {
            "buffer" : 0,
            "byteLength" : 3384,
            "byteOffset" : 554088
        },
        {
            "buffer" : 0,
            "byteLength" : 3384,
            "byteOffset" : 557472
        },
        {
            "buffer" : 0,
            "byteLength" : 2256,
            "byteOffset" : 560856
        },
        {
            "buffer" : 0,
            "byteLength" : 2484,
            "byteOffset" : 563112
        },
        {
            "buffer" : 0,
            "byteLength" : 158424,
            "byteOffset" : 565596
        },
        {
            "buffer" : 0,
            "byteLength" : 158424,
            "byteOffset" : 724020
        },
        {
            "buffer" : 0,
            "byteLength" : 105616,
            "byteOffset" : 882444
        },
        {
            "buffer" : 0,
            "byteLength" : 101808,
            "byteOffset" : 988060
        }
    ],
    "buffers" : [
        {
            "byteLength" : 1089868,
            "uri" : "data:application/octet-stream;base64,"
        }
    ]
}
